<?xml version="1.0" encoding="utf-8"?>
<!DOCTYPE svg PUBLIC "-//W3C//DTD SVG 20010904//EN" "http://www.w3.org/TR/2001/REC-SVG-20010904/DTD/svg10.dtd">
<svg version="1.0" xmlns="http://www.w3.org/2000/svg" width="300pt" height="100pt" viewBox="0 0 602 189" style="" preserveAspectRatio="xMidYMid meet">
<g fill="#FEFEFEFE" stroke="#FEFEFEFE">
<path d="M 1.000 94.500 L 1.000 188.000 301.000 188.000 L 601.000 188.000 601.000 94.500 L 601.000 1.000 301.000 1.000 L 1.000 1.000 1.000 94.500 M 180.500 24.739 C 168.432 29.241 155.004 42.135 149.461 54.543 C 145.657 63.059 143.122 72.523 140.410 88.335 C 137.107 107.591 134.040 119.666 130.096 128.934 C 126.214 138.056 126.726 139.000 135.550 139.000 C 141.138 139.000 142.086 138.706 143.887 136.417 C 148.040 131.136 151.000 119.993 156.480 89.000 C 158.783 75.978 162.528 63.761 166.614 55.947 C 177.627 34.885 200.480 24.408 239.500 22.533 L 252.500 21.908 245.108 25.457 C 227.910 33.715 216.244 48.011 211.042 67.201 C 209.954 71.215 207.702 82.150 206.038 91.500 C 200.461 122.830 196.199 133.746 185.170 144.954 C 167.569 162.842 144.610 167.393 75.000 166.790 L 41.500 166.500 46.653 164.702 C 56.731 161.185 68.397 151.638 74.993 141.507 C 81.789 131.071 84.168 123.488 88.489 98.500 C 95.015 60.753 103.266 44.642 121.190 34.646 C 135.058 26.912 157.606 22.138 179.000 22.406 L 186.500 22.500 180.500 24.739 M 313.935 24.398 C 295.338 32.129 282.137 47.996 277.015 68.776 C 275.968 73.024 273.944 83.120 272.517 91.211 C 267.872 117.543 264.131 128.799 256.416 139.649 C 247.344 152.406 230.369 160.881 206.868 164.386 C 195.746 166.045 173.176 167.026 176.500 165.706 C 186.025 161.923 192.185 157.924 199.069 151.054 C 211.885 138.262 215.542 129.485 221.469 97.293 C 227.230 66.006 232.039 53.834 242.971 42.880 C 255.630 30.196 280.536 22.738 312.000 22.210 L 319.500 22.085 313.935 24.398 M 491.000 22.407 C 491.000 22.631 488.373 28.369 485.163 35.157 L 479.327 47.500 500.913 48.000 L 522.500 48.500 522.219 52.000 C 521.912 55.812 519.488 74.622 517.965 85.000 C 517.441 88.575 516.534 95.537 515.950 100.472 C 514.792 110.264 512.664 114.921 508.478 116.828 C 506.891 117.551 500.370 118.000 491.453 118.000 C 475.780 118.000 476.058 118.113 477.600 112.367 C 478.073 110.602 479.106 110.156 483.585 109.785 C 486.562 109.538 489.201 109.133 489.449 108.885 C 489.697 108.637 490.589 103.499 491.432 97.467 C 492.274 91.435 493.403 83.575 493.940 80.000 C 494.477 76.425 495.184 71.025 495.511 68.000 C 495.838 64.975 496.343 61.263 496.632 59.750 L 497.159 57.000 486.072 57.000 L 474.985 57.000 471.992 63.177 C 470.347 66.575 469.000 69.500 469.000 69.677 C 469.000 69.855 473.500 70.000 479.000 70.000 L 489.000 70.000 489.000 79.360 C 489.000 84.509 489.286 90.809 489.636 93.360 L 490.272 98.000 480.136 98.000 C 470.330 98.000 469.996 97.927 469.868 95.750 C 469.796 94.513 469.459 88.325 469.118 82.000 L 468.500 70.500 458.093 92.737 C 452.370 104.967 446.918 115.669 445.978 116.520 C 444.602 117.765 442.023 118.011 432.725 117.783 L 421.179 117.500 425.643 108.000 C 431.441 95.660 439.331 79.039 445.083 67.052 L 449.665 57.500 438.333 57.218 C 427.734 56.955 427.000 56.806 427.000 54.923 C 427.000 53.815 428.105 51.805 429.455 50.455 C 431.765 48.144 432.559 48.000 442.982 48.000 L 454.055 48.000 459.571 36.250 C 462.604 29.788 465.828 23.938 466.734 23.250 C 468.249 22.101 491.000 21.311 491.000 22.407 M 389.536 29.250 C 389.173 32.688 388.454 37.945 387.938 40.934 C 387.422 43.922 387.000 46.960 387.000 47.684 C 387.000 48.722 390.696 49.000 404.500 49.000 L 422.000 49.000 422.000 51.800 C 422.000 56.660 420.836 57.000 404.193 57.000 C 392.276 57.000 388.896 57.283 389.269 58.250 C 390.844 62.321 408.353 103.642 410.920 109.343 C 412.614 113.107 414.000 116.594 414.000 117.093 C 414.000 117.592 408.215 118.000 401.145 118.000 L 388.290 118.000 379.517 97.567 L 370.744 77.135 357.782 95.817 C 350.652 106.093 343.910 115.288 342.799 116.250 C 341.119 117.705 338.776 118.000 328.889 118.000 C 322.350 118.000 317.001 117.663 317.002 117.250 C 317.003 116.838 322.595 108.400 329.429 98.500 C 336.264 88.600 345.498 75.213 349.951 68.750 L 358.046 57.000 341.523 57.000 C 327.287 57.000 325.000 56.786 325.000 55.455 C 325.000 54.605 326.105 52.805 327.455 51.455 C 329.856 49.053 330.255 49.000 345.909 49.000 L 361.909 49.000 362.406 45.750 C 362.679 43.963 363.433 38.760 364.083 34.190 C 364.732 29.619 365.911 25.232 366.703 24.440 C 367.782 23.361 370.906 23.000 379.170 23.000 L 390.196 23.000 389.536 29.250 M 361.000 141.500 C 361.000 145.075 361.353 148.000 361.785 148.000 C 362.217 148.000 364.013 145.075 365.776 141.500 C 368.661 135.650 369.282 135.000 371.991 135.000 C 374.707 135.000 375.006 135.316 375.058 138.250 C 375.089 140.038 375.431 143.281 375.818 145.458 L 376.520 149.417 379.349 142.208 L 382.177 135.000 386.088 135.000 C 388.240 135.000 390.000 135.275 390.000 135.610 C 390.000 135.946 386.978 142.921 383.285 151.110 C 376.610 165.913 376.552 166.000 373.285 166.000 C 370.105 166.000 369.996 165.864 369.882 161.750 C 369.817 159.413 369.479 156.267 369.132 154.759 C 368.535 152.169 368.301 152.390 364.903 158.759 C 361.826 164.526 360.876 165.543 358.328 165.800 L 355.349 166.101 354.173 152.800 C 352.487 133.729 352.285 135.000 357.000 135.000 L 361.000 135.000 361.000 141.500 M 322.681 137.590 C 325.139 140.048 325.237 140.543 324.605 147.336 C 323.863 155.326 321.209 161.775 317.778 163.931 C 316.486 164.742 311.928 165.554 307.250 165.806 L 299.000 166.251 299.625 162.875 C 299.969 161.019 301.319 154.346 302.625 148.048 C 303.931 141.749 305.000 136.237 305.000 135.798 C 305.000 135.359 308.395 135.000 312.545 135.000 C 319.330 135.000 320.352 135.261 322.681 137.590 M 481.367 138.236 C 482.959 140.165 483.139 141.532 482.589 147.482 C 481.800 156.010 479.608 160.730 475.000 163.823 C 470.355 166.940 464.540 166.329 461.130 162.364 C 459.039 159.934 458.829 158.944 459.362 154.053 C 460.666 142.105 463.027 137.772 469.423 135.582 C 474.160 133.960 478.666 134.962 481.367 138.236 M 412.630 137.250 C 412.299 138.488 412.021 140.063 412.014 140.750 C 412.004 141.620 410.026 142.000 405.500 142.000 C 399.233 142.000 399.000 142.090 399.000 144.500 C 399.000 146.833 399.333 147.000 404.000 147.000 C 408.101 147.000 408.997 147.315 408.985 148.750 C 408.955 152.173 407.323 153.286 402.353 153.275 C 398.822 153.268 397.315 153.706 396.820 154.882 C 395.332 158.424 395.945 158.906 402.317 159.204 L 408.635 159.500 407.789 162.750 L 406.943 166.000 396.971 166.000 C 391.487 166.000 387.000 165.586 387.000 165.081 C 387.000 163.861 391.917 138.990 392.600 136.750 C 393.063 135.235 394.484 135.000 403.184 135.000 C 413.117 135.000 413.226 135.026 412.630 137.250 M 345.471 138.250 C 346.333 143.240 347.989 154.899 348.676 160.819 L 349.294 166.138 345.397 165.819 C 342.235 165.560 341.440 165.076 341.180 163.250 C 340.906 161.318 340.258 161.000 336.591 161.000 C 333.007 161.000 332.138 161.402 331.182 163.500 C 330.237 165.573 329.345 166.000 325.956 166.000 L 321.870 166.000 327.644 155.250 C 330.819 149.338 334.561 142.366 335.959 139.758 C 338.175 135.623 338.910 135.016 341.705 135.008 C 344.541 135.001 344.974 135.374 345.471 138.250 M 456.956 136.763 L 459.133 138.526 456.707 140.806 C 454.584 142.800 453.951 142.935 451.640 141.882 C 449.609 140.956 448.406 140.950 446.421 141.854 C 443.002 143.412 443.775 145.208 448.550 146.797 C 450.694 147.511 453.247 148.818 454.224 149.702 C 456.711 151.953 456.608 158.970 454.048 161.718 C 449.788 166.291 439.934 167.152 434.278 163.447 L 431.632 161.713 434.441 159.297 C 436.276 157.719 437.812 157.137 438.875 157.618 C 439.769 158.023 442.075 158.387 444.000 158.427 C 446.852 158.487 447.557 158.100 447.807 156.342 C 448.049 154.651 447.464 154.041 445.104 153.523 C 440.061 152.415 437.000 149.333 437.000 145.362 C 437.000 140.907 438.351 138.417 441.775 136.559 C 445.660 134.450 454.242 134.566 456.956 136.763 M 453.358 30.147 C 453.711 33.527 454.000 38.252 454.000 40.647 L 454.000 45.000 443.500 45.000 L 433.000 45.000 433.000 34.500 L 433.000 24.000 442.858 24.000 L 452.715 24.000 453.358 30.147 M 509.607 136.582 C 509.273 137.452 509.000 138.802 509.000 139.582 C 509.000 140.661 507.445 141.000 502.500 141.000 C 497.555 141.000 496.000 141.339 496.000 142.418 C 496.000 143.198 495.727 144.548 495.393 145.418 C 494.884 146.745 495.693 147.000 500.412 147.000 L 506.038 147.000 505.390 149.750 C 504.481 153.606 504.115 153.842 498.500 154.190 L 493.500 154.500 492.452 160.000 C 491.422 165.401 491.336 165.506 487.702 165.810 C 485.532 165.992 484.000 165.675 484.000 165.044 C 484.000 163.688 488.856 139.112 489.591 136.750 C 490.061 135.236 491.487 135.000 500.174 135.000 C 508.918 135.000 510.136 135.204 509.607 136.582 M 533.986 136.250 C 533.941 140.444 532.707 142.000 529.430 142.000 C 526.427 142.000 525.990 142.374 525.053 145.750 C 524.480 147.813 524.009 150.007 524.006 150.627 C 524.003 151.247 523.276 154.960 522.391 158.877 C 520.805 165.903 520.739 166.000 517.558 166.000 C 515.785 166.000 514.105 165.772 513.826 165.492 C 513.547 165.213 514.367 159.926 515.649 153.742 C 516.932 147.559 517.985 142.388 517.990 142.250 C 517.996 142.113 516.677 142.000 515.059 142.000 C 511.542 142.000 510.723 140.952 511.578 137.546 C 512.214 135.013 512.272 135.000 523.108 135.000 C 531.162 135.000 533.996 135.326 533.986 136.250 M 424.974 136.750 C 424.960 137.713 423.702 144.575 422.178 152.000 L 419.407 165.500 415.704 165.810 C 412.961 166.040 412.000 165.737 412.000 164.641 C 412.000 162.987 416.793 138.207 417.491 136.250 C 417.737 135.563 419.526 135.000 421.469 135.000 C 424.175 135.000 424.994 135.409 424.974 136.750 "/></g>
<g fill="#009EF0FE" stroke="#009EF0FE">
<path d="M 146.000 26.522 C 125.249 30.780 110.106 40.332 102.200 54.150 C 97.256 62.791 93.368 76.070 89.507 97.500 C 85.397 120.316 83.328 127.623 78.180 137.500 C 73.425 146.624 62.829 157.269 53.500 162.296 L 46.500 166.067 90.500 165.634 C 130.183 165.243 135.474 164.996 144.432 163.120 C 168.950 157.985 182.105 150.537 191.095 136.702 C 196.207 128.833 200.537 117.056 201.565 108.221 C 201.805 106.159 201.521 105.999 198.593 106.549 C 194.966 107.229 180.957 105.530 178.253 104.082 C 177.289 103.566 174.380 102.179 171.788 101.001 C 169.197 99.823 164.831 96.750 162.085 94.172 L 157.094 89.486 156.449 93.493 C 152.525 117.869 147.552 134.634 143.240 138.026 C 140.349 140.300 130.221 140.821 128.200 138.800 C 126.429 137.029 126.697 135.260 129.939 127.305 C 133.502 118.561 137.164 103.757 139.920 86.953 C 141.052 80.053 142.933 70.828 144.100 66.453 C 145.267 62.079 146.199 57.703 146.171 56.728 C 146.140 55.619 146.566 55.224 147.311 55.670 C 148.013 56.092 147.942 55.695 147.135 54.701 C 146.278 53.645 145.999 51.898 146.385 50.009 C 146.723 48.354 147.276 45.650 147.613 44.000 C 147.951 42.350 148.576 41.000 149.002 41.000 C 149.429 41.000 150.094 39.314 150.480 37.252 C 150.867 35.191 151.504 33.279 151.895 33.002 C 152.286 32.726 153.873 30.813 155.422 28.750 L 158.237 25.000 155.369 25.094 C 153.791 25.146 149.575 25.788 146.000 26.522 "/></g>
<g fill="#009EF0FE" stroke="#009EF0FE">
<path d="M 468.339 23.181 C 466.369 24.134 460.337 35.183 456.290 45.250 L 454.783 49.000 443.614 49.000 C 431.670 49.000 428.000 50.181 428.000 54.025 C 428.000 55.779 428.941 55.960 439.423 56.218 L 450.846 56.500 445.828 67.000 C 443.068 72.775 439.549 80.200 438.007 83.500 C 436.465 86.800 432.259 95.688 428.661 103.250 L 422.119 117.000 433.404 117.000 C 442.929 117.000 444.918 116.727 446.152 115.250 C 446.956 114.288 450.027 108.325 452.976 102.000 C 455.925 95.675 461.108 84.650 464.492 77.500 C 467.877 70.350 471.488 62.588 472.516 60.250 L 474.385 56.000 486.211 56.000 C 497.947 56.000 498.035 56.017 497.572 58.250 C 497.316 59.488 496.353 66.350 495.432 73.500 C 494.511 80.650 493.024 91.675 492.129 98.000 L 490.500 109.500 484.500 110.000 C 478.581 110.493 478.496 110.544 478.187 113.750 L 477.873 117.000 492.687 116.978 C 512.582 116.948 513.241 116.404 515.569 98.111 C 516.312 92.275 518.063 78.995 519.460 68.599 C 520.857 58.204 522.000 49.541 522.000 49.349 C 522.000 49.157 512.100 49.000 500.000 49.000 C 487.900 49.000 478.000 48.859 478.000 48.687 C 478.000 48.515 479.184 45.928 480.631 42.937 C 484.217 35.526 490.000 22.835 490.000 22.375 C 490.000 21.497 470.306 22.229 468.339 23.181 "/></g>
<g fill="#009EF0FE" stroke="#009EF0FE">
<path d="M 368.306 23.644 C 367.650 23.911 366.653 25.563 366.091 27.315 C 365.191 30.122 363.000 45.298 363.000 48.724 C 363.000 49.709 359.130 50.000 346.057 50.000 C 329.682 50.000 329.061 50.075 327.557 52.223 C 324.394 56.738 324.975 56.934 342.369 57.226 L 358.738 57.500 352.619 66.209 C 349.254 70.999 340.049 84.274 332.165 95.709 L 317.830 116.500 328.165 116.792 C 333.849 116.952 339.466 116.843 340.646 116.549 C 342.032 116.203 347.703 108.958 356.646 96.105 C 364.266 85.156 370.760 76.356 371.078 76.551 C 371.396 76.746 375.424 85.927 380.030 96.953 L 388.404 117.000 400.809 117.000 C 410.325 117.000 413.101 116.709 412.729 115.750 C 411.815 113.392 395.795 75.502 394.020 71.500 C 390.134 62.736 388.000 57.728 388.000 57.373 C 388.000 57.168 394.664 57.000 402.809 57.000 C 418.446 57.000 420.187 56.557 421.466 52.250 L 422.135 50.000 403.956 50.000 L 385.777 50.000 386.386 46.750 C 386.721 44.963 387.463 39.675 388.036 35.000 C 388.608 30.325 389.315 25.713 389.606 24.750 C 390.087 23.159 389.198 23.007 379.817 23.079 C 374.143 23.122 368.963 23.376 368.306 23.644 "/></g>
<g fill="#02E0F0FE" stroke="#02E0F0FE">
<path d="M 214.500 25.990 C 189.428 30.974 175.112 40.657 166.438 58.500 C 161.407 68.847 156.502 87.450 158.142 89.958 C 158.999 91.267 159.069 91.236 158.607 89.750 C 158.308 88.788 158.499 88.000 159.031 88.000 C 159.564 88.000 160.000 88.617 160.000 89.371 C 160.000 90.125 161.541 91.798 163.425 93.089 C 165.308 94.379 166.640 95.774 166.384 96.188 C 166.128 96.602 167.062 97.228 168.459 97.579 C 169.857 97.930 171.000 98.618 171.000 99.108 C 171.000 99.599 171.932 100.000 173.071 100.000 C 174.211 100.000 175.818 100.675 176.643 101.500 C 177.468 102.325 179.209 103.000 180.512 103.000 C 181.816 103.000 183.160 103.450 183.500 104.000 C 183.840 104.550 188.291 105.000 193.400 105.000 L 202.682 105.000 203.783 99.750 C 204.389 96.863 205.171 92.475 205.521 90.000 C 207.108 78.793 211.476 61.889 214.437 55.500 C 218.098 47.600 223.515 40.111 229.172 35.130 C 233.468 31.347 233.928 29.239 231.007 26.738 C 228.018 24.179 224.429 24.016 214.500 25.990 "/></g>
<g fill="#FC4242FE" stroke="#FC4242FE">
<path d="M 286.486 24.806 C 279.178 25.553 259.000 31.925 259.000 33.484 C 259.000 33.790 260.049 35.718 261.332 37.770 C 271.468 53.983 273.270 70.905 266.304 84.460 C 264.880 87.232 263.076 90.726 262.297 92.224 C 260.183 96.287 250.189 104.823 244.500 107.424 C 236.573 111.049 232.697 112.059 225.830 112.287 L 219.413 112.500 217.657 119.500 C 216.692 123.350 214.427 129.559 212.624 133.298 C 210.821 137.037 209.710 140.321 210.154 140.595 C 210.599 140.870 214.700 141.358 219.269 141.681 C 228.704 142.347 239.128 140.605 250.500 136.462 C 254.350 135.059 258.072 133.791 258.772 133.644 C 259.471 133.497 259.733 133.067 259.355 132.688 C 258.976 132.310 259.136 132.000 259.710 132.000 C 262.108 132.000 267.931 114.134 270.466 99.000 C 275.280 70.260 276.486 65.256 280.947 55.517 C 283.489 49.967 289.714 40.699 293.440 36.916 C 294.298 36.045 294.993 34.920 294.985 34.416 C 294.976 33.912 294.597 34.087 294.142 34.805 C 293.570 35.706 292.725 34.623 291.411 31.305 C 290.365 28.662 289.500 26.050 289.490 25.500 C 289.480 24.950 288.128 24.638 286.486 24.806 "/></g>
<g fill="#EE5A56FE" stroke="#EE5A56FE">
<path d="M 259.250 31.774 C 258.563 31.990 257.993 32.917 257.985 33.833 C 257.971 35.275 257.838 35.297 257.000 34.000 C 256.296 32.910 256.026 32.858 256.015 33.809 C 256.007 34.529 255.550 34.840 255.000 34.500 C 254.450 34.160 254.000 34.385 254.000 35.000 C 254.000 35.615 253.550 35.840 253.000 35.500 C 252.450 35.160 252.000 35.359 252.000 35.941 C 252.000 36.523 251.325 37.000 250.500 37.000 C 248.367 37.000 248.633 38.125 251.500 41.217 C 252.875 42.699 254.000 44.382 254.000 44.956 C 254.000 45.530 254.395 46.000 254.878 46.000 C 255.361 46.000 256.824 48.813 258.128 52.250 C 261.556 61.284 261.356 71.199 257.559 80.335 C 255.997 84.095 254.107 87.405 253.360 87.692 C 252.612 87.979 252.000 88.641 252.000 89.163 C 252.000 90.597 246.031 95.786 241.366 98.407 C 236.848 100.945 225.166 103.538 221.990 102.708 C 220.347 102.278 220.069 102.595 220.416 104.508 C 220.647 105.785 220.564 107.102 220.231 107.435 C 219.013 108.654 219.381 111.932 220.798 112.476 C 222.599 113.167 231.294 112.191 236.000 110.768 C 246.327 107.647 258.877 98.797 262.297 92.224 C 263.076 90.726 264.880 87.232 266.304 84.460 C 273.281 70.884 271.470 53.984 261.294 37.709 C 259.884 35.455 259.243 33.404 259.712 32.650 C 260.212 31.846 260.043 31.526 259.250 31.774 "/></g>
<g fill="#E60A18FE" stroke="#E60A18FE">
<path d="M 257.561 133.653 C 255.157 135.320 241.347 139.643 234.114 140.994 C 227.757 142.181 219.139 142.231 213.373 141.113 C 209.566 140.375 209.124 140.521 207.665 142.989 C 204.721 147.973 191.583 159.454 184.996 162.799 L 178.500 166.098 189.000 165.479 C 213.187 164.054 231.686 159.097 243.777 150.801 C 249.540 146.847 255.488 140.526 257.690 136.014 C 259.471 132.367 259.469 132.329 257.561 133.653 "/></g>
<g fill="#F06C64FE" stroke="#F06C64FE">
<path d="M 245.101 41.392 C 242.907 43.728 242.899 43.817 244.767 45.142 C 247.397 47.010 252.000 55.533 252.000 58.535 C 252.000 59.891 252.338 61.000 252.750 61.000 C 253.163 61.000 253.500 63.250 253.500 66.000 C 253.500 68.750 253.163 71.000 252.750 71.000 C 252.338 71.000 252.000 72.056 252.000 73.346 C 252.000 78.527 244.737 88.066 238.000 91.733 C 233.567 94.146 225.469 96.408 224.160 95.599 C 223.052 94.914 220.434 101.767 221.425 102.758 C 222.626 103.959 237.013 100.852 241.237 98.479 C 246.010 95.797 252.000 90.613 252.000 89.163 C 252.000 88.641 252.612 87.979 253.360 87.692 C 254.107 87.405 255.997 84.095 257.559 80.335 C 261.356 71.199 261.556 61.284 258.128 52.250 C 256.824 48.813 255.361 46.000 254.878 46.000 C 254.395 46.000 254.000 45.553 254.000 45.008 C 254.000 43.551 249.829 39.000 248.494 39.000 C 247.864 39.000 246.337 40.076 245.101 41.392 "/></g>
<g fill="#009EF0FE" stroke="#009EF0FE">
<path d="M 354.382 146.750 C 355.340 163.404 355.709 165.000 358.599 165.000 C 360.560 165.000 361.654 163.653 364.854 157.292 C 369.102 148.849 369.315 148.925 370.497 159.309 C 371.129 164.857 371.277 165.104 373.793 164.809 C 376.121 164.536 377.149 162.935 382.653 151.000 C 386.077 143.575 388.906 136.909 388.939 136.187 C 388.980 135.306 387.968 134.977 385.869 135.187 C 382.979 135.476 382.499 136.094 379.619 143.239 C 377.904 147.495 376.163 150.983 375.750 150.989 C 375.338 150.995 374.995 149.088 374.989 146.750 C 374.983 144.413 374.695 140.789 374.350 138.699 C 373.831 135.557 373.356 134.950 371.613 135.199 C 370.095 135.416 368.388 137.737 365.512 143.500 L 361.519 151.500 360.659 143.250 L 359.800 135.000 356.753 135.000 L 353.706 135.000 354.382 146.750 "/></g>
<g fill="#009EF0FE" stroke="#009EF0FE">
<path d="M 304.566 142.008 C 303.175 148.127 300.001 163.935 300.000 164.750 C 300.000 164.888 302.969 165.000 306.599 165.000 C 318.171 165.000 321.260 162.133 323.939 148.910 C 325.921 139.131 323.419 135.978 313.094 135.239 L 306.218 134.747 304.566 142.008 M 317.638 142.500 C 318.462 144.648 316.268 156.174 314.765 157.592 C 314.069 158.248 312.485 159.090 311.245 159.462 C 308.188 160.378 307.390 157.991 308.790 152.122 C 309.397 149.580 310.178 146.038 310.526 144.250 C 311.069 141.460 311.577 141.000 314.111 141.000 C 315.812 141.000 317.307 141.635 317.638 142.500 "/></g>
<g fill="#FC4242FE" stroke="#FC4242FE">
<path d="M 468.452 136.358 C 466.776 137.114 464.647 138.890 463.721 140.303 C 461.728 143.345 459.896 150.917 459.816 156.448 C 459.680 165.805 472.389 168.227 478.691 160.046 C 480.484 157.718 483.180 144.564 482.455 141.677 C 481.104 136.292 474.314 133.713 468.452 136.358 M 475.820 143.754 C 476.482 148.418 473.949 156.987 471.418 158.645 C 468.531 160.537 465.992 159.120 466.012 155.628 C 466.032 151.969 468.842 142.717 470.202 141.833 C 472.491 140.344 475.481 141.366 475.820 143.754 "/></g>
<g fill="#009EF0FE" stroke="#009EF0FE">
<path d="M 470.000 84.500 L 470.000 98.000 479.500 98.000 L 489.000 98.000 488.989 88.250 C 488.983 82.888 488.699 76.813 488.358 74.750 L 487.738 71.000 478.869 71.000 L 470.000 71.000 470.000 84.500 "/></g>
<g fill="#009EF0FE" stroke="#009EF0FE">
<path d="M 335.161 142.927 C 332.834 147.339 329.197 153.998 327.078 157.725 L 323.225 164.500 326.607 164.810 C 329.416 165.068 330.186 164.687 331.155 162.560 C 332.172 160.327 332.939 160.000 337.161 160.000 C 341.656 160.000 342.000 160.178 342.000 162.500 C 342.000 164.611 342.467 165.000 345.000 165.000 C 348.638 165.000 348.659 164.680 346.139 147.500 C 344.452 136.004 344.273 135.487 341.884 135.202 C 339.689 134.940 338.885 135.865 335.161 142.927 M 341.000 151.059 C 341.000 154.767 340.824 155.000 338.013 155.000 L 335.026 155.000 337.188 150.549 C 339.711 145.356 341.000 145.528 341.000 151.059 "/></g>
<g fill="#009EF0FE" stroke="#009EF0FE">
<path d="M 393.491 136.250 C 392.936 137.806 388.000 162.822 388.000 164.081 C 388.000 164.586 392.223 165.000 397.383 165.000 C 406.269 165.000 406.799 164.881 407.370 162.750 C 407.701 161.513 407.979 160.246 407.986 159.936 C 407.994 159.626 405.357 159.564 402.128 159.797 C 395.685 160.263 394.934 159.795 395.700 155.791 C 396.178 153.287 396.619 153.072 401.858 152.797 C 407.184 152.517 407.518 152.346 407.816 149.750 C 408.125 147.066 408.010 147.000 403.000 147.000 C 397.990 147.000 397.875 146.934 398.184 144.250 C 398.486 141.625 398.795 141.477 405.000 141.000 C 411.205 140.523 411.514 140.375 411.816 137.750 L 412.133 135.000 403.035 135.000 C 396.661 135.000 393.804 135.374 393.491 136.250 "/></g>
<g fill="#F49A88FE" stroke="#F49A88FE">
<path d="M 233.032 57.433 C 230.271 63.219 226.677 73.835 224.631 82.250 C 224.004 84.826 224.168 85.000 227.231 84.993 C 232.296 84.983 239.855 79.142 241.956 73.615 C 244.460 67.030 242.595 56.565 238.225 52.674 C 236.198 50.869 236.139 50.924 233.032 57.433 "/></g>
<g fill="#F28276FE" stroke="#F28276FE">
<path d="M 238.530 48.595 C 236.908 51.070 236.923 51.289 238.848 53.345 C 241.698 56.387 243.000 60.357 243.000 66.000 C 243.000 71.970 241.705 75.567 238.345 78.930 C 234.192 83.087 230.717 84.986 227.250 84.993 C 225.328 84.997 223.994 85.511 223.986 86.250 C 223.979 86.938 223.701 88.513 223.370 89.750 C 222.875 91.595 223.171 92.000 225.017 92.000 C 228.256 92.000 235.274 89.792 236.821 88.286 C 237.548 87.579 238.538 87.000 239.021 87.000 C 240.152 87.000 245.989 80.789 245.995 79.579 C 245.998 79.072 246.697 77.888 247.548 76.947 C 248.474 75.924 249.332 72.425 249.682 68.250 C 250.198 62.101 249.960 60.621 247.695 55.882 C 245.323 50.922 241.842 46.000 240.705 46.000 C 240.444 46.000 239.465 47.168 238.530 48.595 "/></g>
<g fill="#009EF0FE" stroke="#009EF0FE">
<path d="M 433.359 29.602 C 433.711 32.174 434.000 36.466 434.000 39.140 L 434.000 44.000 443.538 44.000 L 453.075 44.000 452.788 34.750 L 452.500 25.500 442.609 25.212 L 432.718 24.924 433.359 29.602 "/></g>
<g fill="#FC4242FE" stroke="#FC4242FE">
<path d="M 444.021 136.116 C 440.121 137.672 438.092 139.993 437.398 143.693 C 436.597 147.963 439.251 151.159 445.036 152.893 C 447.924 153.758 449.000 154.619 449.000 156.065 C 449.000 158.937 444.626 160.362 440.247 158.917 C 437.206 157.913 436.536 158.020 434.762 159.794 L 432.741 161.815 435.821 163.407 C 437.515 164.283 441.166 165.000 443.935 165.000 C 448.028 165.000 449.533 164.486 451.987 162.250 C 456.167 158.441 456.867 154.088 453.842 150.709 C 452.554 149.269 449.925 147.706 448.000 147.236 C 445.556 146.640 444.407 145.747 444.192 144.277 C 443.815 141.706 446.754 140.544 451.419 141.419 C 453.887 141.882 455.086 141.562 456.422 140.086 C 458.117 138.213 458.071 138.088 455.139 136.572 C 451.727 134.807 447.713 134.643 444.021 136.116 "/></g>
<g fill="#FC4242FE" stroke="#FC4242FE">
<path d="M 490.362 136.498 C 490.046 137.322 488.565 144.072 487.071 151.498 L 484.355 165.000 487.541 165.000 C 490.627 165.000 490.767 164.811 492.000 159.000 L 493.273 153.000 498.530 153.000 C 502.400 153.000 503.946 152.583 504.393 151.418 C 505.541 148.426 504.986 148.000 499.937 148.000 L 494.873 148.000 495.187 144.750 C 495.498 141.521 495.538 141.498 501.476 141.193 C 507.469 140.886 508.956 140.006 508.985 136.750 C 508.998 135.211 507.909 135.000 499.969 135.000 C 492.869 135.000 490.814 135.320 490.362 136.498 "/></g>
<g fill="#FC4242FE" stroke="#FC4242FE">
<path d="M 512.667 135.667 C 512.300 136.033 512.000 137.383 512.000 138.667 C 512.000 140.675 512.497 141.000 515.567 141.000 C 518.506 141.000 519.039 141.308 518.589 142.750 C 518.289 143.713 517.399 147.875 516.611 152.000 C 515.823 156.125 514.864 160.738 514.481 162.250 C 513.822 164.849 513.971 165.000 517.194 165.000 L 520.606 165.000 522.907 153.054 L 525.209 141.108 528.854 140.804 C 531.998 140.542 532.544 140.121 532.816 137.750 L 533.133 135.000 523.233 135.000 C 517.788 135.000 513.033 135.300 512.667 135.667 "/></g>
<g fill="#02E0F0FE" stroke="#02E0F0FE">
<path d="M 164.728 23.718 C 161.782 24.163 157.000 27.967 157.000 29.865 C 157.000 30.489 156.559 31.000 156.019 31.000 C 155.480 31.000 154.756 32.125 154.411 33.500 C 154.066 34.875 153.472 36.000 153.092 36.000 C 152.202 36.000 150.318 41.382 149.416 46.500 C 149.029 48.700 148.261 50.792 147.710 51.149 C 147.159 51.506 147.023 52.617 147.407 53.619 C 147.964 55.069 148.841 54.134 151.720 49.025 C 156.451 40.631 166.016 31.315 174.612 26.731 L 181.500 23.058 174.500 23.179 C 170.650 23.245 166.252 23.488 164.728 23.718 "/></g>
<g fill="#EE5A56FE" stroke="#EE5A56FE">
<path d="M 242.000 43.745 C 240.075 45.701 239.075 46.973 239.778 46.574 C 241.470 45.612 244.472 49.142 247.695 55.882 C 249.960 60.621 250.198 62.101 249.682 68.250 C 249.332 72.425 248.474 75.924 247.548 76.947 C 246.697 77.888 245.998 79.072 245.995 79.579 C 245.988 81.068 240.213 86.798 238.017 87.494 C 236.908 87.847 236.000 88.483 236.000 88.908 C 236.000 89.926 225.664 92.388 223.883 91.794 C 223.018 91.506 222.459 92.114 222.391 93.416 C 222.331 94.562 221.962 96.400 221.572 97.500 C 221.022 99.047 221.172 98.984 222.233 97.219 C 222.987 95.964 223.905 95.238 224.273 95.607 C 225.167 96.500 233.629 94.113 238.000 91.733 C 244.737 88.066 252.000 78.527 252.000 73.346 C 252.000 72.056 252.338 71.000 252.750 71.000 C 253.163 71.000 253.500 68.750 253.500 66.000 C 253.500 63.250 253.163 61.000 252.750 61.000 C 252.338 61.000 252.000 59.891 252.000 58.535 C 252.000 55.554 247.404 47.015 244.808 45.171 C 243.225 44.047 243.134 43.560 244.218 42.016 C 244.923 41.012 243.925 41.790 242.000 43.745 "/></g>
<g fill="#009EF0FE" stroke="#009EF0FE">
<path d="M 418.416 136.359 C 418.129 137.107 416.652 143.857 415.135 151.359 L 412.375 165.000 415.688 165.000 C 417.509 165.000 419.000 164.768 419.000 164.484 C 419.000 163.525 424.041 138.516 424.591 136.750 C 425.028 135.343 424.528 135.000 422.036 135.000 C 420.332 135.000 418.703 135.612 418.416 136.359 "/></g>
<g fill="#E60A18FE" stroke="#E60A18FE">
<path d="M 302.320 23.391 C 295.621 24.001 289.878 24.768 289.558 25.095 C 289.238 25.422 290.081 28.122 291.431 31.095 C 292.780 34.068 293.911 35.938 293.942 35.250 C 293.974 34.563 294.338 34.104 294.750 34.231 C 295.163 34.359 298.200 32.644 301.500 30.421 C 304.800 28.198 309.750 25.408 312.500 24.222 C 315.250 23.036 316.825 22.114 316.000 22.174 C 315.175 22.234 309.019 22.782 302.320 23.391 "/></g>
<g fill="#FEFEFEFE" stroke="#FEFEFEFE">
<path d="M 470.819 142.043 C 468.958 143.127 466.596 152.097 467.147 155.990 C 467.634 159.423 470.502 159.690 472.594 156.497 C 474.502 153.585 475.201 141.923 473.500 141.382 C 472.950 141.208 471.744 141.505 470.819 142.043 "/></g>
<g fill="#FEFEFEFE" stroke="#FEFEFEFE">
<path d="M 311.558 143.250 C 310.372 147.152 309.000 154.232 309.000 156.443 C 309.000 158.323 309.523 159.000 310.977 159.000 C 313.897 159.000 315.910 155.153 316.639 148.181 L 317.285 142.000 314.611 142.000 C 313.140 142.000 311.766 142.563 311.558 143.250 "/></g>
<g fill="#00A0F0FE" stroke="#00A0F0FE">
<path d="M 158.712 90.006 C 159.357 92.473 167.097 98.847 172.500 101.361 C 174.700 102.384 177.289 103.627 178.253 104.121 C 181.097 105.581 195.069 107.210 198.776 106.514 C 201.329 106.035 202.006 106.182 201.444 107.091 C 200.963 107.868 201.109 108.051 201.845 107.595 C 204.778 105.783 202.278 105.000 193.559 105.000 C 188.344 105.000 183.841 104.552 183.500 104.000 C 183.160 103.450 181.816 103.000 180.512 103.000 C 179.209 103.000 177.468 102.325 176.643 101.500 C 175.818 100.675 174.211 100.000 173.071 100.000 C 171.932 100.000 171.000 99.599 171.000 99.108 C 171.000 98.618 169.857 97.930 168.459 97.579 C 167.062 97.228 166.128 96.602 166.384 96.188 C 166.640 95.774 165.308 94.379 163.425 93.089 C 161.541 91.798 160.000 90.125 160.000 89.371 C 160.000 88.617 159.592 88.000 159.094 88.000 C 158.595 88.000 158.423 88.903 158.712 90.006 "/></g>
<g fill="#00A0F0FE" stroke="#00A0F0FE">
<path d="M 155.500 28.520 C 153.850 30.982 152.202 32.997 151.838 32.998 C 151.474 32.999 150.872 34.800 150.500 37.000 C 150.128 39.200 149.465 41.000 149.026 41.000 C 148.044 41.000 146.968 45.851 146.482 52.464 C 146.274 55.301 146.468 56.861 146.936 56.104 C 147.386 55.375 147.533 53.928 147.261 52.889 C 146.989 51.850 147.212 51.000 147.756 51.000 C 148.299 51.000 149.045 49.088 149.412 46.750 C 150.216 41.623 152.142 36.000 153.092 36.000 C 153.472 36.000 154.066 34.875 154.411 33.500 C 154.756 32.125 155.480 31.000 156.019 31.000 C 156.559 31.000 157.000 30.341 157.000 29.535 C 157.000 28.730 157.900 27.589 159.000 27.000 C 161.226 25.809 161.685 23.988 159.750 24.022 C 159.063 24.034 157.150 26.058 155.500 28.520 "/></g>
<g fill="#009EF0FE" stroke="#009EF0FE">
<path d="M 232.638 23.727 C 229.808 24.150 229.800 24.171 231.888 25.634 C 233.050 26.448 234.000 27.769 234.000 28.570 C 234.000 29.648 235.757 29.126 240.750 26.563 L 247.500 23.098 241.500 23.199 C 238.200 23.254 234.212 23.492 232.638 23.727 "/></g>
<g fill="#FEFEFEFE" stroke="#FEFEFEFE">
<path d="M 337.693 150.918 C 335.911 153.960 335.915 154.000 338.007 154.000 C 339.776 154.000 340.075 153.490 339.813 150.918 L 339.500 147.836 337.693 150.918 "/></g>
<g fill="#EE5A56FE" stroke="#EE5A56FE">
<path d="M 504.150 152.000 C 504.068 152.550 501.777 153.000 499.059 153.000 C 496.341 153.000 493.908 153.339 493.652 153.754 C 493.395 154.169 495.731 154.282 498.843 154.004 C 502.514 153.677 504.465 153.061 504.400 152.250 C 504.345 151.563 504.233 151.450 504.150 152.000 "/></g>
<g fill="#00A0F0FE" stroke="#00A0F0FE">
<path d="M 227.954 24.730 C 229.911 25.501 232.599 28.158 233.284 30.000 C 233.659 31.009 233.868 30.782 233.921 29.307 C 234.005 26.981 230.584 23.947 228.027 24.079 C 226.737 24.146 226.725 24.247 227.954 24.730 "/></g>
<g fill="#EE5A56FE" stroke="#EE5A56FE">
<path d="M 528.750 140.810 C 526.688 140.981 525.000 141.473 525.000 141.903 C 525.000 142.733 532.218 141.851 532.396 141.000 C 532.453 140.725 530.813 140.640 528.750 140.810 "/></g>
<g fill="#EE5A56FE" stroke="#EE5A56FE">
<path d="M 513.618 165.191 C 513.893 165.636 515.779 165.944 517.809 165.875 L 521.500 165.750 517.309 165.065 C 515.004 164.689 513.343 164.745 513.618 165.191 "/></g>
<g fill="#EE5A56FE" stroke="#EE5A56FE">
<path d="M 487.500 165.108 L 483.500 165.716 487.250 165.858 C 489.313 165.936 491.113 165.663 491.250 165.250 C 491.388 164.838 489.700 164.774 487.500 165.108 "/></g>
<g fill="#EE5A56FE" stroke="#EE5A56FE">
<path d="M 464.332 138.250 C 463.690 138.941 463.015 140.139 462.832 140.912 C 462.649 141.685 463.175 141.120 464.000 139.656 C 464.825 138.191 464.974 137.559 464.332 138.250 "/></g>
<g fill="#FC4242FE" stroke="#FC4242FE">
<path d="M 312.257 23.001 C 313.895 23.494 314.784 23.459 314.448 22.915 C 314.137 22.412 312.896 22.039 311.691 22.086 C 309.823 22.159 309.906 22.294 312.257 23.001 "/></g>
<g fill="#EE5A56FE" stroke="#EE5A56FE">
<path d="M 251.000 145.888 L 249.500 147.563 251.000 145.888 L 252.500 144.212 251.000 145.888 "/></g>
<g fill="#EE5A56FE" stroke="#EE5A56FE">
<path d="M 457.000 139.888 L 455.500 141.563 457.000 139.888 L 458.500 138.212 457.000 139.888 "/></g>
<g fill="#F06C64FE" stroke="#F06C64FE">
<path d="M 294.000 36.888 L 292.500 38.563 294.000 36.888 L 295.500 35.212 294.000 36.888 "/></g>
<g fill="#EE5A56FE" stroke="#EE5A56FE">
<path d="M 435.422 163.874 C 435.805 164.493 436.654 164.986 437.309 164.970 C 437.964 164.953 437.651 164.446 436.613 163.843 C 435.224 163.037 434.910 163.045 435.422 163.874 "/></g>
<g fill="#EE5A56FE" stroke="#EE5A56FE">
<path d="M 452.378 162.378 L 451.500 163.256 452.378 162.378 L 453.256 161.500 452.378 162.378 "/></g>
<g fill="#EE5A56FE" stroke="#EE5A56FE">
<path d="M 467.422 158.874 C 467.805 159.493 468.654 159.986 469.309 159.970 C 469.964 159.953 469.651 159.446 468.613 158.843 C 467.224 158.037 466.910 158.045 467.422 158.874 "/></g>
<g fill="#EE5A56FE" stroke="#EE5A56FE">
<path d="M 201.378 149.378 L 200.500 150.256 201.378 149.378 L 202.256 148.500 201.378 149.378 "/></g>
<g fill="#EE5A56FE" stroke="#EE5A56FE">
<path d="M 444.422 145.874 C 444.805 146.493 445.654 146.986 446.309 146.970 C 446.964 146.953 446.651 146.446 445.613 145.843 C 444.224 145.037 443.910 145.045 444.422 145.874 "/></g>
<g fill="#EE5A56FE" stroke="#EE5A56FE">
<path d="M 454.422 135.874 C 454.805 136.493 455.654 136.986 456.309 136.970 C 456.964 136.953 456.651 136.446 455.613 135.843 C 454.224 135.037 453.910 135.045 454.422 135.874 "/></g>
<g fill="#EE5A56FE" stroke="#EE5A56FE">
<path d="M 280.750 55.666 C 280.338 56.033 280.030 56.821 280.066 57.417 C 280.102 58.013 280.439 57.712 280.816 56.750 C 281.192 55.787 281.163 55.300 280.750 55.666 "/></g>
<g fill="#EE5A56FE" stroke="#EE5A56FE">
<path d="M 283.750 49.666 C 283.338 50.033 283.030 50.821 283.066 51.417 C 283.102 52.013 283.439 51.712 283.816 50.750 C 284.192 49.787 284.163 49.300 283.750 49.666 "/></g>
<g fill="#EE5A56FE" stroke="#EE5A56FE">
<path d="M 299.378 32.378 L 298.500 33.256 299.378 32.378 L 300.256 31.500 299.378 32.378 "/></g>
<g fill="#FC4242FE" stroke="#FC4242FE">
<path d="M 297.378 33.378 L 296.500 34.256 297.378 33.378 L 298.256 32.500 297.378 33.378 "/></g>
</svg>
